# xmcd
#
# Track frame offsets:
#	150
#	21218
#	46259
#	66114
#	91066
#	116422
#	133287
#	160366
#	176636
#	205445
#	233705
#	250618
#	270808
#	289087
#
# Disc length: 4150 seconds
#
# Revision: 3
# Processed by: cddbd v1.5.2PL0 Copyright (c) Steve Scherf et al.
# Submitted via: audiograbber 1.83.01
#
DISCID=bd10340e
DTITLE=Van Morrison - The Prophet Speaks
DYEAR=2018
DGENRE=Blues
TTITLE0=Gonna Send You Back To Where I Got You From
TTITLE1=Dimples
TTITLE2=Got To Go Where The Love Is
TTITLE3=Laughin And Clownin
TTITLE4=5 am Greenwich Mean Time
TTITLE5=Gotta Get You Off My Mind
TTITLE6=Teardrops
TTITLE7=I Love The Life I Live
TTITLE8=Worried Blues - Rollin And Tumblin
TTITLE9=Aint Gonna Moan No More
TTITLE10=Love Is A Five Letter Word
TTITLE11=Love Is Hard Work
TTITLE12=Spirit Will Provide
TTITLE13=The Prophet Speaks
EXTD=YEAR: 2018\n\nMARO\n
EXTT0=
EXTT1=
EXTT2=
EXTT3=
EXTT4=
EXTT5=
EXTT6=
EXTT7=
EXTT8=
EXTT9=
EXTT10=
EXTT11=
EXTT12=
EXTT13=
PLAYORDER=
